<svg width="799" height="287" viewBox="0 0 799 287" fill="none" xmlns="http://www.w3.org/2000/svg">
<path d="M620.733 41.5601C590.516 41.5601 563.355 54.9884 544.821 76.2353V60.5235C544.821 54.6905 542.061 49.3788 537.575 45.5563C533.114 41.709 526.952 39.3262 520.174 39.3262V143.327C520.174 199.423 565.031 245.094 620.733 245.094C676.434 245.094 721.784 199.423 721.784 143.327C721.784 87.2312 676.459 41.5601 620.733 41.5601ZM620.733 220.273C578.611 220.273 544.328 185.747 544.328 143.327C544.328 100.908 578.611 66.3813 620.733 66.3813C662.854 66.3813 697.137 100.883 697.137 143.327C697.137 185.771 662.878 220.273 620.733 220.273Z" fill="#111827"/>
<path d="M591.231 155.911C598.037 155.911 603.554 150.355 603.554 143.5C603.554 136.646 598.037 131.09 591.231 131.09C584.425 131.09 578.907 136.646 578.907 143.5C578.907 150.355 584.425 155.911 591.231 155.911Z" fill="black"/>
<path d="M591.231 155.911C598.037 155.911 603.554 150.355 603.554 143.5C603.554 136.646 598.037 131.09 591.231 131.09C584.425 131.09 578.907 136.646 578.907 143.5C578.907 150.355 584.425 155.911 591.231 155.911Z" fill="#111827"/>
<path d="M646.473 155.911C653.279 155.911 658.796 150.355 658.796 143.5C658.796 136.646 653.279 131.09 646.473 131.09C639.667 131.09 634.15 136.646 634.15 143.5C634.15 150.355 639.667 155.911 646.473 155.911Z" fill="#111827"/>
<path d="M280.856 143.376C280.856 87.2804 235.531 41.6094 179.805 41.6094C124.079 41.6094 79.2463 87.2804 79.2463 143.376V247.377C86.0242 247.377 92.1858 244.995 96.6468 241.147C101.133 237.325 103.893 232.013 103.893 226.18V210.468C122.427 231.715 149.588 245.143 179.805 245.143C235.531 245.143 280.856 199.497 280.856 143.376ZM256.209 143.376C256.209 185.821 221.95 220.322 179.805 220.322C137.659 220.322 103.4 185.821 103.4 143.376C103.4 100.932 137.683 66.4306 179.805 66.4306C221.926 66.4306 256.209 100.957 256.209 143.376Z" fill="#111827"/>
<path d="M150.303 155.464C157.109 155.464 162.626 149.907 162.626 143.053C162.626 136.199 157.109 130.643 150.303 130.643C143.497 130.643 137.979 136.199 137.979 143.053C137.979 149.907 143.497 155.464 150.303 155.464Z" fill="#111827"/>
<path d="M207.285 155.464C214.091 155.464 219.609 149.907 219.609 143.053C219.609 136.199 214.091 130.643 207.285 130.643C200.479 130.643 194.962 136.199 194.962 143.053C194.962 149.907 200.479 155.464 207.285 155.464Z" fill="#111827"/>
<path d="M297.246 143.624C297.246 199.72 342.571 245.391 398.297 245.391C453.998 245.391 498.855 199.72 498.855 143.624C498.855 140.224 498.855 39.623 498.855 39.623C492.077 39.623 485.915 42.0059 481.454 45.8532C476.969 49.6756 474.208 54.9874 474.208 60.8204V76.5322C455.674 55.2852 428.513 41.857 398.297 41.857C342.571 41.857 297.246 87.5032 297.246 143.624ZM321.892 143.624C321.892 101.18 356.151 66.6782 398.297 66.6782C440.418 66.6782 474.701 101.18 474.701 143.624C474.701 186.044 440.418 220.57 398.297 220.57C356.151 220.57 321.892 186.044 321.892 143.624Z" fill="#111827"/>
<path d="M427.799 156.356C434.605 156.356 440.122 150.8 440.122 143.946C440.122 137.092 434.605 131.535 427.799 131.535C420.993 131.535 415.475 137.092 415.475 143.946C415.475 150.8 420.993 156.356 427.799 156.356Z" fill="#111827"/>
<path d="M370.816 156.356C377.622 156.356 383.139 150.8 383.139 143.946C383.139 137.092 377.622 131.535 370.816 131.535C364.01 131.535 358.492 137.092 358.492 143.946C358.492 150.8 364.01 156.356 370.816 156.356Z" fill="#111827"/>
</svg>
